<svg id="edc14b36-be7b-4010-a389-4a1507f767b2" data-name="Layer 5" xmlns="http://www.w3.org/2000/svg" viewBox="0 0 95 95"><defs><style>.e971548c-7c9d-4695-80d5-1759b21cc4be{fill:#f8f7f7;}.ab74f97f-e16b-447a-9187-7d91b5308f6e{fill:none;stroke:#f8f7f7;stroke-miterlimit:10;stroke-width:5px;}</style></defs><path class="e971548c-7c9d-4695-80d5-1759b21cc4be" d="M25.08,50.63C24.75,38.36,35,28.24,45.67,27.45c6.84-.5,12.16,2.93,14.26,4.47a35.28,35.28,0,0,1-.39,6.13,34.85,34.85,0,0,1-2.46,8.58c-3.22-5.93-10.46-7.49-14.84-4.41a9.79,9.79,0,0,0-2.78,12.16c2.07,3.88,7,5.49,10.37,4.88,7-1.29,12.23-13.26,12.75-30l12.13-.13c-.08,20.23-7.17,37-19.21,41.88a21.27,21.27,0,0,1-11.84,1.23c-9-1.75-18.27-10.22-18.58-21.61" transform="translate(-2.5 -2.5)"/><path class="e971548c-7c9d-4695-80d5-1759b21cc4be" d="M74.83,47.88a34.1,34.1,0,0,1-13,21.56l0,2,13.15-.08Z" transform="translate(-2.5 -2.5)"/><circle class="ab74f97f-e16b-447a-9187-7d91b5308f6e" cx="47.5" cy="47.5" r="45"/></svg>